<svg width="512" height="512" viewBox="0 0 512 512" fill="none" xmlns="http://www.w3.org/2000/svg">
  <path d="M491.6 261.2c0-17.6-1.6-34.5-4.6-50.8H256v96.1h132.1c-5.7 30.7-23 56.7-49 74.1v61.7h79.4c46.5-42.8 73.1-105.9 73.1-181.1Z" fill="#4285F4"/>
  <path d="M256 501c66.3 0 121.9-21.9 162.5-58.7l-79.4-61.7c-22 14.8-50.1 23.5-83.1 23.5-64 0-118.2-43.2-137.6-101.3H36.5v63.7C76.9 446.7 159.9 501 256 501Z" fill="#34A853"/>
  <path d="M118.4 302.8c-4.9-14.8-7.7-30.6-7.7-46.8s2.8-32 7.7-46.8v-63.7H36.5C19.9 178.5 10.5 216.1 10.5 256s9.4 77.5 26 110.5l81.9-63.7Z" fill="#FBBC05"/>
  <path d="M256 107.9c36.1 0 68.5 12.4 94 36.8l70.5-70.5C377.9 34.5 322.3 11 256 11 159.9 11 76.9 65.3 36.5 145.5l81.9 63.7c19.4-58.1 73.6-101.3 137.6-101.3Z" fill="#EA4335"/>
</svg>
